<svg aria-hidden="true" style="width:0;height:0;position:absolute;overflow:hidden" xmlns="http://www.w3.org/2000/svg"><defs><symbol id="icon-project-3" viewBox="0 0 109 32"><path d="M4.888 31.041c-1.81 0-3.066-.369-3.786-1.115a5.199 5.199 0 0 1-1.08-3.675V3.822A3.659 3.659 0 0 1 1.073.981a3.651 3.651 0 0 1 2.598-.97h8.204l1.08 5.818H6.979c-.37 0-.555.194-.555.601v18.23c0 .407.185.601.555.601h5.976l-1.119 5.818-6.949-.039zm16.204-3.879-.564 3.879h-6.277L19.876.011h6.657l5.606 31.03h-6.248l-.564-3.879h-4.233zm.681-4.926h2.92l-1.47-10.967-1.45 10.967zM46.113.01a3.547 3.547 0 0 1 2.774 1.028 3.96 3.96 0 0 1 .925 2.735v14.856a6.73 6.73 0 0 1-.195 1.648c-.126.488-.37.937-.71 1.309a3.487 3.487 0 0 1-1.372.873 6.23 6.23 0 0 1-2.151.32H40.06v8.262h-6.19V.011h12.243zM40.06 5.45v12.189h3.095c.253 0 .418-.049.487-.145a.814.814 0 0 0 .107-.494V6.042c0-.398-.185-.592-.555-.592H40.06zM64.672.01 66.2 5.828h-4.146V31.04h-6.355V5.828h-4.165L53.159.01h11.513zm6.667 27.152-.555 3.879h-6.277L70.093.011h6.667l5.625 31.03h-6.238l-.555-3.879h-4.253zm.701-4.849h2.92l-1.47-11.045-1.45 11.045zM84.127.01h6.229v31.03h-6.229V.01zm8.817 0h5.927l3.182 12.451V.01h6.404v31.03h-6.404l-3.348-12.965V31.04h-5.761V.01z"/></symbol><symbol id="icon-project-4" viewBox="0 0 120 32"><path d="M31.876 4.068c.281.31.362.55.251.73s-.352.16-.713 0a2.731 2.731 0 0 0-1.125-.31 1.377 1.377 0 0 1-.934-.34 7.26 7.26 0 0 0-2.562-1.64 10.56 10.56 0 0 0-3.105-.68 13.15 13.15 0 0 0-3.195.15 11.57 11.57 0 0 0-2.844.84 15.403 15.403 0 0 0-3.015 1.85 31.444 31.444 0 0 0-3.336 2.87 37.571 37.571 0 0 0-3.256 3.56 34.466 34.466 0 0 0-2.773 4.06 24.423 24.423 0 0 0-2.01 4.2 13.356 13.356 0 0 0-.784 4.1c-.021.338.075.673.271.95.184.232.427.411.703.52.304.109.622.173.945.19.305.015.61.015.914 0a12.675 12.675 0 0 0 3.015-.69 24.068 24.068 0 0 0 2.964-1.27c.978-.5 1.902-1.03 2.773-1.59.884-.55 1.688-1.09 2.412-1.61s1.367-1 1.919-1.39.955-.7 1.236-.88c.42-.304.889-.534 1.387-.68a2.455 2.455 0 0 0 1.005-.36l1.286-.82c.301-.17.482-.22.533-.15s0 .23-.261.46c-1.075 1.14-2.201 2.23-3.376 3.25s-2.371 2-3.587 3a28.76 28.76 0 0 1-2.301 1.62 29.822 29.822 0 0 1-2.834 1.62c-.977.483-1.984.904-3.015 1.26a8.86 8.86 0 0 1-2.844.51 6.319 6.319 0 0 1-2.603-.46 4.415 4.415 0 0 1-1.738-1.31 5.507 5.507 0 0 1-1.005-1.89 7.787 7.787 0 0 1-.271-2.19 13.42 13.42 0 0 1 .864-4.32 24.621 24.621 0 0 1 2.15-4.49 32.422 32.422 0 0 1 3.115-4.29 34.821 34.821 0 0 1 3.708-3.71 25.878 25.878 0 0 1 3.839-2.73 13.225 13.225 0 0 1 3.658-1.56 21.6 21.6 0 0 1 3.768-.44 15.74 15.74 0 0 1 7.577 1.67 11.663 11.663 0 0 1 3.195 2.39zm-11.395 15.05a5.658 5.658 0 0 1-.633.49c-.09 0-.131 0-.121-.05a1.68 1.68 0 0 1 .161-.39c.079-.139.149-.283.211-.43.188-.461.326-.94.412-1.43.033-.369.181-.718.422-1l.734-.86c.332-.39.724-.82 1.186-1.28a19.714 19.714 0 0 1 1.547-1.37 10.693 10.693 0 0 1 1.779-1.14 1.016 1.016 0 0 1 .804-.06c.29.084.562.22.804.4.219.163.401.371.533.61a.517.517 0 0 1 0 .57 18.547 18.547 0 0 1-1.125 1.83c-.502.7-1.005 1.44-1.497 2.23s-.945 1.59-1.357 2.4a9.933 9.933 0 0 0-.834 2.25c.7-.398 1.353-.871 1.949-1.41.683-.61 1.357-1.28 2.01-2s1.316-1.46 2.01-2.21l1.779-2.08a.571.571 0 0 1 .663-.22c.277.078.53.226.734.43.214.222.375.488.472.78a1 1 0 0 1 0 .8 17.863 17.863 0 0 0-1.417 3.58 22.96 22.96 0 0 0 2.462-1.66c.794-.61 1.417-1.08 1.879-1.41.14-.096.292-.173.452-.23l.502-.15c.209-.063.414-.14.613-.23.234-.1.516-.24.844-.42.432-.23.663-.3.683-.23s-.11.27-.422.57c-.563.56-1.156 1.16-1.799 1.79s-1.286 1.25-1.949 1.85c-.663.6-1.316 1.16-2.01 1.68a10.96 10.96 0 0 1-1.809 1.23.71.71 0 0 1-.613.06 2.296 2.296 0 0 1-.663-.3 2.021 2.021 0 0 1-.543-.5.933.933 0 0 1-.211-.55 5.352 5.352 0 0 1 .02-1.22c-.663.69-1.357 1.34-2.08 2a18.87 18.87 0 0 1-2.432 1.74 1.657 1.657 0 0 1-.904.15 5.05 5.05 0 0 1-1.186-.23 3.315 3.315 0 0 1-1.005-.55 1.194 1.194 0 0 1-.432-.94 3.463 3.463 0 0 1 .171-1.29 13.8 13.8 0 0 1 .533-1.43c.221-.5.462-1 .734-1.47l.744-1.37c-.482.46-.955.91-1.417 1.37s-.955.92-1.387 1.3zm19.434-3.85c-.633.74-1.226 1.38-1.728 1.94-.32.408-.754.714-1.246.88a5.142 5.142 0 0 1-.633 0 1.393 1.393 0 0 0-.663.21 3.77 3.77 0 0 0-.844.55 7.853 7.853 0 0 1-.764.57c-.181.12-.211.07-.101-.13s.523-.74 1.206-1.6a653.667 653.667 0 0 0 3.195-4A43.417 43.417 0 0 0 41 9.918a.497.497 0 0 1 .533-.17c.236.053.463.14.673.26.249.117.471.284.653.49.181.21.261.38.231.53a22.206 22.206 0 0 0-.613 2.4 5.906 5.906 0 0 1 2.603-1c.495-.048.994.046 1.437.27.464.22.891.51 1.266.86.345.313.64.678.874 1.08.189.281.29.612.291.95a3.893 3.893 0 0 1-.844 2.23 7.482 7.482 0 0 1-1.839 1.66c.813-.261 1.6-.596 2.351-1 .633-.36 1.166-.68 1.608-1s.824-.55 1.136-.76c.269-.203.582-.34.914-.4.127-.012.255-.012.382 0a.8.8 0 0 0 .322-.08c.145-.068.28-.156.402-.26l.653-.54c.181-.17.291-.23.342-.17s.05.12 0 .17a15.226 15.226 0 0 1-2.01 2.55 18.24 18.24 0 0 1-2.623 2.27 17.59 17.59 0 0 1-2.964 1.7c-.978.436-2.019.716-3.085.83a1.884 1.884 0 0 1-.693-.07 8.837 8.837 0 0 1-1.005-.31 4.38 4.38 0 0 1-.894-.45 1.66 1.66 0 0 1-.553-.54l-.161.42c-.301.84-.613 1.7-.914 2.57s-.643 1.75-1.005 2.63a25.52 25.52 0 0 1-1.226 2.53 13.212 13.212 0 0 1-1.547 2.25.595.595 0 0 1-.553.17 1.126 1.126 0 0 1-.633-.38 2.354 2.354 0 0 1-.482-.86 2.976 2.976 0 0 1-.09-1.22 20.399 20.399 0 0 1 1.718-5.9 67.76 67.76 0 0 1 3.105-6.05c.121-.23.261-.46.402-.69a7.4 7.4 0 0 1 .432-.65l.322-.97zm6.772-.95a4.704 4.704 0 0 0-2.924 1.12 11.543 11.543 0 0 0-2.16 2.42c-.127.507-.248.997-.362 1.47-.121.47-.251 1-.402 1.46l.221-.11a9.697 9.697 0 0 0 1.748-1c.659-.442 1.278-.94 1.849-1.49a8.093 8.093 0 0 0 1.477-1.85 3.739 3.739 0 0 0 .553-2.02zm7.577 6.59a8.618 8.618 0 0 0 2.713-.54 15.664 15.664 0 0 0 2.582-1.23 21.938 21.938 0 0 0 2.372-1.64c.754-.6 1.437-1.16 2.01-1.7a.614.614 0 0 1 .463-.19c.121 0 .1.18-.08.46a5.536 5.536 0 0 0-.633 1.52 1.991 1.991 0 0 1-.362.92 11.56 11.56 0 0 1-.824.89c-.369.363-.766.697-1.186 1-.442.34-.914.67-1.397 1a7.409 7.409 0 0 1-1.457.73c-.444.186-.905.33-1.377.43-.501.12-1.013.19-1.527.21a3.345 3.345 0 0 1-1.166-.26 5.182 5.182 0 0 1-1.266-.73 6.465 6.465 0 0 1-1.005-1 1.826 1.826 0 0 1-.472-1 10.094 10.094 0 0 1 .231-3.54 11.347 11.347 0 0 1 1.236-3 8.578 8.578 0 0 1 2.01-2.33 8.534 8.534 0 0 1 2.653-1.47 1.732 1.732 0 0 1 1.075 0c.411.132.803.317 1.166.55.342.222.65.491.914.8.21.225.338.514.362.82a2.212 2.212 0 0 1-.261 1c-.199.404-.424.795-.673 1.17-.261.4-.563.82-.874 1.25l-.904 1.22c-.281.36-.482.48-.613.38s-.11-.37 0-.8c.101-.28.171-.5.211-.66.036-.144.057-.292.06-.44a1.001 1.001 0 0 0-.06-.36 3.248 3.248 0 0 1-.1-.4 1.478 1.478 0 0 1 .06-.58c.071-.218.155-.432.251-.64.1-.23.201-.47.301-.73.104-.258.181-.526.231-.8a5.323 5.323 0 0 0-2.01 1.43 10.465 10.465 0 0 0-1.648 2.43 11.23 11.23 0 0 0-1.005 2.93 6.817 6.817 0 0 0 0 2.9zm11.255-7a19.08 19.08 0 0 1 2.08-1.77 4.854 4.854 0 0 1 1.648-.8 2.144 2.144 0 0 1 1.397.11c.507.243.961.582 1.336 1l.583-.87a.57.57 0 0 1 .623-.19c.304.047.593.164.844.34.25.16.46.376.613.63a.508.508 0 0 1 0 .63c-.253.35-.482.718-.683 1.1-.332.58-.683 1.25-1.005 2s-.703 1.49-1.005 2.23a9.043 9.043 0 0 0-.603 1.79.36.36 0 0 0 0 .19v.23a12.829 12.829 0 0 0 1.497-1c.553-.4 1.105-.81 1.638-1.23l1.517-1.2 1.085-.88c.167-.129.349-.236.543-.32.147-.065.298-.122.452-.17l.502-.18c.217-.081.423-.189.613-.32.151-.1.261-.13.322-.09s0 .14-.09.32c-1.005 1.32-2.01 2.6-3.175 3.85-.312.33-.653.71-1.005 1.14-.383.426-.799.821-1.246 1.18-.423.34-.893.616-1.397.82a2.257 2.257 0 0 1-1.497.06 2.858 2.858 0 0 1-1.799-1 2.153 2.153 0 0 1-.191-1.64c-.475.692-.985 1.36-1.527 2a5.88 5.88 0 0 1-1.487 1.33c-1.738 1-3.015.67-3.909-1.1a3.353 3.353 0 0 1-.301-1.39 5.184 5.184 0 0 1 .322-1.93 10.58 10.58 0 0 1 1.095-2.27 14.474 14.474 0 0 1 2.211-2.61v.01zm.532 6.25a48.648 48.648 0 0 0 2.854-3.39c.904-1.2 1.769-2.4 2.582-3.62a2.01 2.01 0 0 0-1.226.32 12.29 12.29 0 0 0-1.437 1c-.472.37-.904.73-1.296 1.09-.28.233-.542.487-.784.76-.315.36-.65.81-1.005 1.35-.392.55-.764 1.11-1.105 1.7a10.842 10.842 0 0 0-.824 1.64 1.547 1.547 0 0 0-.151 1.14c.151.23.392.17.744-.17l1.648-1.82zm28.74-3.77a2.35 2.35 0 0 1 .422-.18l.402-.11.493-.17c.19-.08.432-.19.713-.34s.522-.28.573-.21 0 .23-.312.51c-.512.63-1.115 1.32-1.829 2.06s-1.457 1.41-2.221 2.06a20.85 20.85 0 0 1-2.261 1.68 5.133 5.133 0 0 1-1.949.82 4.488 4.488 0 0 1-2.411-.29 3.015 3.015 0 0 1-1.568-1.21 3.458 3.458 0 0 1-.432-1.55 10.49 10.49 0 0 1 0-1.79 1.268 1.268 0 0 1 .874-1.07 12.34 12.34 0 0 0 1.136-.59c.43-.258.84-.549 1.225-.87a8.478 8.478 0 0 0 1.055-1.13c.328-.351.579-.767.733-1.22a6.645 6.645 0 0 0-2.261 1.22 17.876 17.876 0 0 0-1.949 1.73 26.353 26.353 0 0 0-1.779 2c-.603.75-1.156 1.46-1.668 2.15s-.945 1.29-1.296 1.83c-.352.54-.593.87-.693 1-.083.143-.196.266-.331.36s-.29.16-.453.19a2.208 2.208 0 0 1-1.779-.48.451.451 0 0 1-.151-.57l3.597-6.47a25.76 25.76 0 0 1-2.181 1.86 22.3 22.3 0 0 1-2.412 1.6c-.311.2-.613.39-.924.55s-.543.29-.703.37c-.161.08-.251.08-.251 0s.141-.23.422-.51c.505-.491.972-1.019 1.397-1.58.279-.367.505-.771.673-1.2.187-.493.511-.923.935-1.24l2.01-1.81a62.28 62.28 0 0 0 2.472-2.45 24.358 24.358 0 0 0 2.502-3.18c.482-1 1.005-2 1.396-3.07s.835-2.08 1.246-3.08c.07-.18.221-.24.452-.19.269.068.515.206.713.4.253.226.47.489.643.78.205.291.294.647.251 1-.025.416-.11.827-.251 1.22a7.4 7.4 0 0 1-.493 1.16 6.254 6.254 0 0 1-.593 1c-.201.27-.371.48-.503.63-.221.51-.422 1-.593 1.32s-.331.71-.512 1-.362.68-.533 1c-.17.32-.402.78-.653 1.26a14.206 14.206 0 0 1 1.929-1 5.26 5.26 0 0 1 2.2-.34c.276.015.544.094.784.23.322.153.62.352.884.59.264.237.485.518.653.83.16.286.206.621.131.94a5.284 5.284 0 0 1-.694 1.48 8.24 8.24 0 0 1-1.165 1.43c-.452.42-.947.792-1.477 1.11a8.68 8.68 0 0 1-1.567.84c-.055.399.038.804.261 1.14.231.38.412.69.542.92a6.127 6.127 0 0 0 1.899-.75c.704-.41 1.387-.87 2.071-1.35s1.286-.94 1.848-1.37a8.555 8.555 0 0 1 1.307-.91v.01zm6.39-.84c-.305.439-.642.856-1.005 1.25-.413.43-.853.834-1.316 1.21-.436.368-.899.702-1.386 1a4.59 4.59 0 0 1-1.267.59c0 .281.02.562.061.84.026.247.112.484.251.69a.818.818 0 0 0 .804.45 2.69 2.69 0 0 0 1.005-.3 13.734 13.734 0 0 0 1.848-1.13 22.227 22.227 0 0 0 1.859-1.46c.612-.54 1.206-1.09 1.779-1.66s1.105-1.11 1.587-1.62c.201-.2.352-.27.442-.21s.081.19 0 .37a15.56 15.56 0 0 0-.633 1.63c-.141.46-.261.84-.361 1.15a3.23 3.23 0 0 1-.442.85c-.278.42-.583.821-.915 1.2a12.84 12.84 0 0 1-1.287 1.3 7.375 7.375 0 0 1-1.587 1.08 5.303 5.303 0 0 1-1.828.55 4.14 4.14 0 0 1-2.01-.26 3.662 3.662 0 0 1-2.009-1.6 4.883 4.883 0 0 1-.633-2.32 7.558 7.558 0 0 1 .381-2.58c.252-.826.589-1.623 1.005-2.38.213-.384.455-.752.723-1.1.31-.414.645-.808 1.005-1.18a8.53 8.53 0 0 1 1.106-1 2.445 2.445 0 0 1 1.095-.48c.467-.005.926.109 1.336.33a4.64 4.64 0 0 1 1.186.74c.264.268.415.625.422 1 .027.365-.031.731-.171 1.07a6.7 6.7 0 0 1-.532 1l-.513.98zm-4.21 1.32a15.663 15.663 0 0 0 1.699-1.94 9.846 9.846 0 0 0 1.286-2.29 3.47 3.47 0 0 0-.713.65 8.111 8.111 0 0 0-.664.88c-.211.3-.402.6-.573.89s-.322.53-.422.71l-.613 1.1zm21.232-1c.413-.3.643-.43.694-.36s-.091.28-.422.66c-.613.74-1.246 1.48-1.91 2.21s-1.326 1.43-2.009 2.08a21.94 21.94 0 0 1-2.01 1.73 8.225 8.225 0 0 1-2.009 1.14c-.201.535-.558.999-1.025 1.332s-1.023.52-1.598.538a4.23 4.23 0 0 1-1.708-.3 4.575 4.575 0 0 1-1.568-1 3.367 3.367 0 0 1-.381-.5 2.301 2.301 0 0 1-.281-.64 1.492 1.492 0 0 1-.061-.65.794.794 0 0 1 .342-.54.768.768 0 0 1 .482-.17h.684c.241 0 .472 0 .693.08l.513.09h1.005a5.73 5.73 0 0 0 .935-.07c.08-.381.121-.77.12-1.16v-3.15c0-.7-.1-1.4-.171-2.11a37.071 37.071 0 0 1-2.924 2.82c-1.065.91-2.01 1.7-2.854 2.36-.362.28-.523.32-.503.13.061-.258.181-.498.352-.7.176-.231.328-.479.452-.74.126-.257.237-.52.332-.79l.241-.68c.061-.178.168-.337.312-.46.332-.33.884-1 1.668-1.86a26.11 26.11 0 0 0 2.502-3.7.464.464 0 0 1 .493-.23c.246.034.483.119.693.25.232.141.443.309.633.5.151.122.262.286.322.47.231 1.35.442 2.74.632 4.19a19.67 19.67 0 0 1 .101 4.27 7.72 7.72 0 0 0 1.507-1c.522-.42 1.005-.85 1.528-1.28s1.005-.84 1.437-1.22c.387-.33.812-.612 1.266-.84.282-.12.533-.22.764-.3.265-.088.514-.22.733-.39v-.01z"/></symbol><symbol id="icon-project-5" viewBox="0 0 125 32"><path d="M28.675 25.78c-1.651 1.89-3.685 3.413-5.967 4.469s-4.763 1.622-7.28 1.661C6.161 31.91 0 26 0 16.3 0 6.3 7.558.3 13.287.3c1.281-.067 2.56.17 3.731.692s2.2 1.313 3.003 2.308L21.026.87h6.865v12.3h-7.789c-.131-2.82-1.528-5.47-4.634-5.47s-5.196 3.87-5.196 8.6c0 4.31 2.231 8.18 6.382 8.18 3.669 0 6.553-3.83 6.945-4.26l5.076 5.56zM44.596.83v5.74h-2.714v6.56h8.302V6.57h-2.573V.83h14.202v5.74H59.3v18.91h2.513v5.74H47.611v-5.74h2.573v-6.57h-8.302v6.57h2.714v5.74H30.424v-5.74h2.412V6.57h-2.412V.83h14.172zm18.966 15C63.562 6.48 69.864 0 78.91 0c10.715 0 15.7 6.39 15.7 16.17S89.092 32 79.212 32c-9.136 0-15.649-5.26-15.649-16.13v-.04zm20.102.3c0-5.26-1.437-9.47-4.804-9.47-2.674 0-4.503 3.78-4.503 9.17 0 5.7 2.01 9.3 4.845 9.3s4.473-3.56 4.473-8.96l-.01-.04zm40.968 9.65c-1.651 1.89-3.685 3.413-5.967 4.469s-4.763 1.622-7.28 1.661c-9.267 0-15.428-5.91-15.428-15.61 0-10 7.559-16 13.288-16a8.12 8.12 0 0 1 6.735 3l1.005-2.43h6.865v12.3h-7.83c-.131-2.82-1.528-5.47-4.633-5.47s-5.197 3.87-5.197 8.6c0 4.31 2.232 8.18 6.382 8.18 3.669 0 6.553-3.83 6.946-4.26l5.116 5.56z"/></symbol><symbol id="icon-project-1" viewBox="0 0 130 32"><path d="M89.71 23.05a9.544 9.544 0 0 0 3.818-.743 22.837 22.837 0 0 0 3.413-1.889l5.343 6.999a11.632 11.632 0 0 1-2.843 1.941 17.535 17.535 0 0 1-3.32 1.187 24.854 24.854 0 0 1-3.672.63 43.191 43.191 0 0 1-3.891.175 40.48 40.48 0 0 1-4.046-.206 39.27 39.27 0 0 1-3.766-.547 30.068 30.068 0 0 1-3.268-.816 17.094 17.094 0 0 1-2.552-1.032l9.638-19.303h-7.189V.496h22.067L88.911 23.051h.799zm29.299-10.518a5.083 5.083 0 0 0-1.245-1.755 5.903 5.903 0 0 0-1.878-1.187 5.878 5.878 0 0 0-4.533 0 5.71 5.71 0 0 0-3.112 2.942 5.057 5.057 0 0 0 0 4.294 5.717 5.717 0 0 0 3.112 2.942 5.873 5.873 0 0 0 4.533 0 5.914 5.914 0 0 0 1.878-1.187 5.07 5.07 0 0 0 1.245-1.755 5.28 5.28 0 0 0 0-4.294zm8.818 7.979a15.122 15.122 0 0 1-3.32 4.697 15.367 15.367 0 0 1-4.948 3.159 16.676 16.676 0 0 1-12.108 0 15.176 15.176 0 0 1-8.237-7.855 14.123 14.123 0 0 1 0-11.5 14.992 14.992 0 0 1 3.32-4.686 16.186 16.186 0 0 1 4.917-3.159 16.296 16.296 0 0 1 12.108 0 16.067 16.067 0 0 1 4.938 3.159 14.807 14.807 0 0 1 3.32 4.686 14.104 14.104 0 0 1 0 11.5h.011zM68.193 9.445v19.613h-9.389V9.445h-5.789V.495H73.93v8.95h-5.737zm-26.009.145a2.181 2.181 0 0 0-1.598-.65h-1.452v4.377h1.452a2.181 2.181 0 0 0 1.598-.65 2.139 2.139 0 0 0 0-3.097v.021zm6.494 9.434 6.536 9.982H45.13c-1.459-2.064-2.594-3.613-3.403-4.645a22.56 22.56 0 0 0-1.743-2.064c-.363-.351-.581-.465-.643-.351a.7.7 0 0 0-.104.372v6.689H29.9V.496h11.433a9.376 9.376 0 0 1 3.994.898 11.125 11.125 0 0 1 3.351 2.333 10.683 10.683 0 0 1 2.417 3.499c.525 1.27.789 2.632.778 4.005a10.917 10.917 0 0 1-.82 4.129 11.34 11.34 0 0 1-2.376 3.664zm-34.299-7.452-1.598 6.111h3.112l-1.515-6.111zm4.845 17.434-.903-3.272h-7.947l-.892 3.272H-.001L9.233.495h10.24l9.234 28.511h-9.482z"/></symbol><symbol id="icon-project-2" viewBox="0 0 118 32"><path d="M18.858 26.181a1.459 1.459 0 0 1-.497.097l-1.88.058h-1.617a16.454 16.454 0 0 1-4.677 3.607 8.656 8.656 0 0 1-4.053.892 8.344 8.344 0 0 1-2.533-.465 6.042 6.042 0 0 1-2.017-1.164 4.72 4.72 0 0 1-1.257-1.697 4.112 4.112 0 0 1-.292-2.133 5.497 5.497 0 0 1 1.101-2.987 4.74 4.74 0 0 1 1.949-1.435 5.154 5.154 0 0 1 2.173-.31 7.057 7.057 0 0 1 1.705.31c.346.144.637.396.828.718.154.253.22.55.185.844a.974.974 0 0 1-.409.63.911.911 0 0 1-.868 0 2.27 2.27 0 0 0-1.617-.116 2.556 2.556 0 0 0-1.169.805 2.91 2.91 0 0 0-.575 1.319c-.097.482-.06.982.107 1.445.187.484.53.893.974 1.164a3.453 3.453 0 0 0 1.949.465 6.695 6.695 0 0 0 4.121-1.784c-.565 0-.916-.175-1.052-.427a.857.857 0 0 1 0-.844c.201-.347.477-.646.809-.873a2.39 2.39 0 0 1 1.237-.446h1.744a51.903 51.903 0 0 0 4.073-5.217c1.403-2.036 2.767-4.092 4.141-6.196s2.631-4.179 3.897-6.216A74.985 74.985 0 0 1 29.079.756a1.833 1.833 0 0 1 1.13-.708c.391-.09.801-.053 1.169.107a1.29 1.29 0 0 1 .692.805 1.493 1.493 0 0 1-.263 1.27c-1.023 1.581-2.027 3.316-3.03 5.217s-1.949 3.821-2.777 5.75c-.828 1.93-1.637 3.801-2.26 5.595a39.097 39.097 0 0 0-1.452 4.771 11.91 11.91 0 0 0-.39 3.345c.068.853.38 1.27.974 1.27.267-.01.53-.062.78-.155a7.47 7.47 0 0 0 .974-.417 8.66 8.66 0 0 0 .974-.63c.32-.226.62-.479.896-.756l1.257-1.27c.366-.392.711-.803 1.033-1.232a.877.877 0 0 1 .731-.417c.303-.023.606.037.877.175.254.115.46.314.585.562a.676.676 0 0 1-.136.756l-1.208 1.445a26.875 26.875 0 0 1-1.949 2.075 20.87 20.87 0 0 1-1.384 1.202c-.389.312-.81.582-1.257.805-.41.205-.846.355-1.296.446a8.092 8.092 0 0 1-1.53.136 2.935 2.935 0 0 1-2.689-1.3 5.936 5.936 0 0 1-.672-3.423zm.312-2.453a29.34 29.34 0 0 1 1.949-5.702c-.711 1.125-1.413 2.172-2.085 3.122s-1.315 1.823-1.949 2.628c.419 0 .809-.049 1.169-.049h.916zm12.413-6.012a.978.978 0 0 1 .76-.514 2.64 2.64 0 0 1 1.14 0c.347.073.665.245.916.495.117.114.194.262.219.423s-.004.326-.083.469l-.263.533.175-.136a7.977 7.977 0 0 1 2.153-1.425 3.053 3.053 0 0 1 1.539-.271c.413.051.795.243 1.082.543.303.297.55.645.731 1.028a2.585 2.585 0 0 1 0 1.988 16.566 16.566 0 0 1-1.14 2.473c-.331.659-.672 1.27-1.033 1.852s-.711 1.183-1.072 1.804a1.318 1.318 0 0 0-.244.65c0 .107.088.136.224.107a2.15 2.15 0 0 0 .468-.194c.169-.103.332-.216.487-.339.692-.53 1.343-1.11 1.949-1.736a19.425 19.425 0 0 0 1.549-1.745.9.9 0 0 1 .76-.446c.293-.023.588.037.848.175.244.122.443.319.565.562a.729.729 0 0 1-.087.756c-.156.175-.351.436-.604.776s-.546.708-.877 1.096-.692.785-1.101 1.202a19.49 19.49 0 0 1-1.228 1.164 8.205 8.205 0 0 1-2.173 1.464 4.035 4.035 0 0 1-1.705.378 1.952 1.952 0 0 1-1.228-.417 2.797 2.797 0 0 1-.77-.97 2.624 2.624 0 0 1-.107-1.939c.284-.874.652-1.718 1.101-2.521.117-.233.263-.514.448-.844s.361-.659.555-.97c.195-.31.37-.669.536-.97a7.04 7.04 0 0 1 .468-.776c.185-.33.253-.543.224-.65s-.127-.136-.283-.107a2.452 2.452 0 0 0-.565.194c-.205.107-.4.223-.585.339-.477.33-.974.689-1.471 1.086-.488.383-.953.795-1.393 1.232-.302.708-.604 1.425-.916 2.143l-.877 2.007c-.273.621-.497 1.154-.692 1.6s-.341.756-.429.97a1.462 1.462 0 0 1-.974.795 2.12 2.12 0 0 1-1.276 0 1.58 1.58 0 0 1-.916-.756 1.464 1.464 0 0 1 .088-1.406c.263-.592.633-1.377 1.091-2.337s.974-1.939 1.442-3.035l1.432-3.103c.409-1.134.809-1.988 1.14-2.705v.01zm17.061-1.115-3.722 6.497a34.324 34.324 0 0 1-.974 1.697c-.288.474-.545.967-.77 1.474a7.243 7.243 0 0 0-.399 1.135c-.078.31-.039.524.117.64a.614.614 0 0 0 .643.116 2.97 2.97 0 0 0 .896-.427c.312-.204.633-.446.974-.708s.624-.533.896-.805l1.257-1.27c.366-.392.711-.803 1.033-1.232a.877.877 0 0 1 .731-.417c.303-.023.606.037.877.175.254.115.46.314.585.562a.676.676 0 0 1-.136.756c-.302.388-.701.873-1.208 1.474s-1.15 1.27-1.949 2.046a20.87 20.87 0 0 1-1.384 1.202c-.389.312-.81.582-1.257.805-.41.205-.846.355-1.296.446a7.744 7.744 0 0 1-1.481.136c-1.53 0-2.416-.621-2.67-1.852s.234-2.909 1.461-4.926c.146-.271.37-.669.672-1.202s.643-1.144 1.052-1.833l1.276-2.182c.448-.776.877-1.532 1.296-2.279a6.656 6.656 0 0 1-.76.049h-.809c-.624 0-1.033-.126-1.208-.378a.833.833 0 0 1-.049-.873c.188-.362.467-.669.809-.892a2.553 2.553 0 0 1 1.296-.446h2.27l.974-1.61a1.804 1.804 0 0 1 1.033-.844 1.959 1.959 0 0 1 1.169 0c.327.095.606.31.78.601a.965.965 0 0 1-.058.97l-.448.756h1.247c.324.025.65.025.974 0 .448 0 .711.136.809.388a1.053 1.053 0 0 1-.098.844 2.68 2.68 0 0 1-.711.892 1.646 1.646 0 0 1-1.082.427l-2.66.087zm14.167 7.127a.964.964 0 0 1 .779-.417c.303-.021.606.039.877.174.25.121.454.318.585.562a.691.691 0 0 1-.136.757c-.156.175-.351.436-.604.776s-.555.708-.896 1.096l-1.052 1.193c-.381.41-.784.798-1.208 1.164a8.314 8.314 0 0 1-2.153 1.464 3.661 3.661 0 0 1-1.656.359 2.044 2.044 0 0 1-1.208-.446 4.05 4.05 0 0 1-.848-.97l-1.549.97a4.96 4.96 0 0 1-2.485.494 3.763 3.763 0 0 1-2.017-.533 3.146 3.146 0 0 1-1.257-1.522 4.835 4.835 0 0 1-.273-2.337 7.916 7.916 0 0 1 1.013-2.967 11.499 11.499 0 0 1 2.036-2.783 14.42 14.42 0 0 1 2.397-1.939 10.122 10.122 0 0 1 2.358-1.115 6.672 6.672 0 0 1 1.949-.359 2.93 2.93 0 0 1 .974.155c.272.101.533.227.78.378.245.15.471.329.672.533.192-.36.512-.636.896-.776.39-.165.816-.228 1.237-.184.33.028.637.181.857.427.185.242.166.562-.068.97l-.896 1.765c-.361.698-.731 1.416-1.12 2.143l-1.101 2.046a15.74 15.74 0 0 1-.828 1.377 1.11 1.11 0 0 0-.205.689c0 .136.175.194.38.184.256-.031.502-.117.721-.252.299-.166.571-.375.809-.621.507-.533.916-.97 1.228-1.27.371-.368.71-.767 1.013-1.193v.01zm-6.587 1.241a9.17 9.17 0 0 0 1.091-1.697 9.788 9.788 0 0 0 .633-1.6 3.79 3.79 0 0 0 .156-1.309 1.074 1.074 0 0 0-.409-.824 1.157 1.157 0 0 0-.916-.156c-.43.098-.84.272-1.208.514a8.759 8.759 0 0 0-1.345 1.067c-.489.476-.944.985-1.364 1.522-.422.553-.797 1.14-1.12 1.755a7.933 7.933 0 0 0-.653 1.581 3.503 3.503 0 0 0-.136 1.299 1.154 1.154 0 0 0 .428.824c.124.091.267.154.419.185s.308.027.458-.01a3.607 3.607 0 0 0 1.228-.485 7.667 7.667 0 0 0 1.364-1.076c.503-.49.962-1.022 1.374-1.59zm6.587-1.251a24.295 24.295 0 0 0 1.949-2.56c.682-1.028 1.315-1.939 1.88-2.832a4.758 4.758 0 0 1-.828-1.629 6.98 6.98 0 0 1-.312-1.939 5.777 5.777 0 0 1 .244-1.852 2.831 2.831 0 0 1 .974-1.396 3.248 3.248 0 0 1 1.88-.785 2.366 2.366 0 0 1 1.52.465c.428.372.731.866.867 1.416.196.594.237 1.228.117 1.842a5.143 5.143 0 0 1-.448 1.338 38.682 38.682 0 0 1-.848 1.658c.398.088.81.088 1.208 0a2.16 2.16 0 0 1 1.208.058c.302.112.565.307.76.562.178.219.275.494.273.776a.966.966 0 0 1-.273.698c-.117.116-.361.388-.711.795s-.77.921-1.237 1.493c-.468.572-.974 1.202-1.413 1.852a21.84 21.84 0 0 0-1.228 1.872 8.756 8.756 0 0 0-.76 1.59c-.166.456-.146.766.058.912a1.252 1.252 0 0 0 1.393.068 7.986 7.986 0 0 0 1.88-1.096 17.725 17.725 0 0 0 1.949-1.648 17.868 17.868 0 0 0 1.52-1.629 1.14 1.14 0 0 1 .789-.378c.291-.015.581.038.848.155.243.115.442.305.565.543a.691.691 0 0 1-.136.756 19.76 19.76 0 0 1-1.949 2.201 16.262 16.262 0 0 1-2.728 2.279 10.72 10.72 0 0 1-3.069 1.445 3.77 3.77 0 0 1-2.923-.261 2.192 2.192 0 0 1-1.296-1.833 5.497 5.497 0 0 1 .448-2.696c.423-1.037.98-2.015 1.656-2.909a13.411 13.411 0 0 1 2.329-2.502c.153-.112.282-.254.38-.417 0-.078-.292-.233-.916-.475-.75 1.164-1.471 2.23-2.173 3.21s-1.179 1.639-1.413 1.939a1.095 1.095 0 0 1-.828.465 1.315 1.315 0 0 1-.828-.204 1.24 1.24 0 0 1-.516-.601.713.713 0 0 1 .136-.747zm5.738-10.744a.663.663 0 0 0-.566.291 1.782 1.782 0 0 0-.263.756 3.069 3.069 0 0 0 .361 1.998c.175-.359.341-.718.487-1.076.138-.313.245-.637.322-.97a1.557 1.557 0 0 0 0-.737.371.371 0 0 0-.341-.262zm13.388 3.617-3.722 6.507a61.636 61.636 0 0 1-.974 1.697c-.282.476-.535.968-.76 1.474a6.509 6.509 0 0 0-.4 1.135c-.078.31 0 .524.107.64a.633.633 0 0 0 .653.117 2.97 2.97 0 0 0 .896-.427c.312-.204.633-.446.974-.708s.624-.533.896-.805c.536-.533.974-.97 1.247-1.27.355-.391.687-.802.994-1.232a.897.897 0 0 1 .779-.446c.303-.021.606.039.877.175.25.121.454.318.585.562a.691.691 0 0 1-.136.756c-.302.388-.701.873-1.208 1.474s-1.15 1.27-1.949 2.046c-.507.475-.974.882-1.393 1.202-.387.31-.805.58-1.247.805a5.292 5.292 0 0 1-1.306.446 7.744 7.744 0 0 1-1.481.136c-1.52 0-2.407-.621-2.66-1.852s.234-2.909 1.452-4.926c.156-.271.38-.669.672-1.202l1.052-1.833c.409-.679.828-1.406 1.276-2.182s.887-1.532 1.306-2.279a6.656 6.656 0 0 1-.76.049h-.809c-.633 0-1.033-.126-1.208-.378a.822.822 0 0 1 0-.872c.185-.364.464-.672.809-.892a2.553 2.553 0 0 1 1.296-.446h2.27l.974-1.61c.22-.379.569-.668.984-.815a1.959 1.959 0 0 1 1.169 0c.324.101.601.314.779.601a.97.97 0 0 1-.068.97l-.448.756h1.257c.325.025.65.025.974 0 .449 0 .712.136.799.388a1.05 1.05 0 0 1-.088.844 2.799 2.799 0 0 1-.712.892 1.645 1.645 0 0 1-1.111.398l-2.64.107zm7.444 7.127a.877.877 0 0 1 .731-.417c.303-.023.606.037.877.175.253.115.46.314.584.562a.672.672 0 0 1-.136.756 65.39 65.39 0 0 1-1.189 1.474 24.935 24.935 0 0 1-3.333 3.248 7.04 7.04 0 0 1-1.256.805 5.22 5.22 0 0 1-1.296.446 7.744 7.744 0 0 1-1.481.136c-1.53 0-2.416-.621-2.67-1.852s.234-2.909 1.461-4.926c.263-.446.546-.97.848-1.493s.604-1.096.916-1.629l.896-1.513c.283-.475.536-.882.741-1.212a1.828 1.828 0 0 1 1.032-.824 1.895 1.895 0 0 1 1.14 0c.324.105.602.317.789.601a.9.9 0 0 1-.098.97c-.322.572-.701 1.232-1.12 1.988l-1.072 2.085a34.324 34.324 0 0 1-.974 1.697 12.66 12.66 0 0 0-.77 1.474 7.35 7.35 0 0 0-.4 1.135c-.078.31-.039.524.117.64a.614.614 0 0 0 .643.116c.345-.09.675-.234.974-.427.337-.219.662-.456.974-.708.322-.272.623-.533.896-.805l1.208-1.27c.343-.394.664-.805.965-1.232zm1.832-9.939c-.164.28-.365.537-.595.766a8.043 8.043 0 0 1-.575.533 3.909 3.909 0 0 1-1.218.485 2.478 2.478 0 0 1-1.053.048.73.73 0 0 1-.574-.446c-.107-.233 0-.562.243-.97.121-.236.254-.466.399-.688.185-.281.341-.543.498-.785.107-.17.249-.316.418-.428s.357-.187.557-.222c.389-.071.79-.048 1.169.068.334.107.618.331.799.63a.965.965 0 0 1-.068 1.009zm-1.472 9.096a12.348 12.348 0 0 1 1.949-2.608 12.037 12.037 0 0 1 2.416-1.842 6.995 6.995 0 0 1 2.514-.892 4.894 4.894 0 0 1 2.349.223 1.577 1.577 0 0 1 1.1 1.202 3.387 3.387 0 0 1-.253 1.716 6.414 6.414 0 0 1-.974 1.746 9.141 9.141 0 0 1-1.218 1.27c-.266.24-.616.369-.974.359a1.594 1.594 0 0 1-.877-.339 1.522 1.522 0 0 1-.488-.689.579.579 0 0 1 .175-.669l.76-.756a8.63 8.63 0 0 0 .77-.873c.168-.207.288-.449.35-.708 0-.194-.097-.291-.399-.291a2.115 2.115 0 0 0-1.032.33 6.08 6.08 0 0 0-1.208.97c-.455.436-.875.906-1.257 1.406a13.284 13.284 0 0 0-1.16 1.736 3.583 3.583 0 0 0-.565 2.143 2.039 2.039 0 0 0 .79 1.444 2.606 2.606 0 0 0 1.715.369 5.664 5.664 0 0 0 2.504-.912c.387-.232.76-.485 1.12-.756.39-.301.76-.611 1.121-.97s.691-.65.974-.97c.27-.275.525-.566.76-.873a.896.896 0 0 1 .721-.417c.284-.019.569.035.828.155.248.112.448.308.565.553a.759.759 0 0 1-.098.785 9.916 9.916 0 0 1-.711.912c-.302.339-.643.708-1.033 1.096s-.798.766-1.228 1.154c-.429.388-.877.747-1.325 1.076a8.058 8.058 0 0 1-2.669 1.425 8.899 8.899 0 0 1-2.573.378 5.872 5.872 0 0 1-2.153-.407 3.171 3.171 0 0 1-1.384-.97 3.66 3.66 0 0 1-.74-1.542 5.636 5.636 0 0 1-.127-1.658 8.07 8.07 0 0 1 .312-1.736 7.27 7.27 0 0 1 .653-1.571zm25.177.843a.964.964 0 0 1 .779-.417c.303-.022.606.038.877.175.253.115.46.314.584.562a.683.683 0 0 1-.136.757c-.146.175-.35.436-.604.776s-.555.708-.896 1.096c-.341.388-.712.785-1.101 1.202-.381.41-.784.798-1.208 1.164a8.348 8.348 0 0 1-2.134 1.464 3.664 3.664 0 0 1-1.656.359 2.044 2.044 0 0 1-1.208-.446 4.05 4.05 0 0 1-.848-.97l-1.549.97a4.962 4.962 0 0 1-2.485.494 3.763 3.763 0 0 1-2.017-.533 3.183 3.183 0 0 1-1.256-1.522 4.832 4.832 0 0 1-.264-2.337 7.728 7.728 0 0 1 .974-2.967 11.526 11.526 0 0 1 2.046-2.783 13.677 13.677 0 0 1 2.397-1.939 9.885 9.885 0 0 1 2.349-1.115 6.66 6.66 0 0 1 1.949-.359c.331-.005.66.048.974.155.274.102.538.229.789.378.28.152.541.334.78.543.189-.362.509-.639.896-.776.371-.157.776-.22 1.179-.184.33.026.638.179.857.427.195.242.166.562-.068.97s-.536 1.067-.896 1.765-.731 1.416-1.121 2.143c-.39.727-.75 1.406-1.101 2.046-.248.485-.525.954-.829 1.406-.175.33-.243.553-.195.689s.166.194.38.184c.253-.031.495-.117.712-.252a3.44 3.44 0 0 0 .808-.621c.507-.533.916-.97 1.228-1.27.376-.378.715-.79 1.013-1.232zm-6.586 1.251a9.46 9.46 0 0 0 1.773-3.316c.126-.421.179-.861.156-1.299a1.104 1.104 0 0 0-.4-.824 1.16 1.16 0 0 0-.974-.155 3.8 3.8 0 0 0-1.208.514 8.71 8.71 0 0 0-1.345 1.067c-.486.479-.941.987-1.364 1.522a13.354 13.354 0 0 0-1.121 1.765 7.874 7.874 0 0 0-.653 1.581 3.456 3.456 0 0 0-.126 1.299 1.163 1.163 0 0 0 .419.825 1.072 1.072 0 0 0 .877.175 3.623 3.623 0 0 0 1.228-.485 8.071 8.071 0 0 0 1.373-1.076c.497-.493.953-1.025 1.364-1.59z"/></symbol></defs></svg>