<svg aria-hidden="true" style="width:0;height:0;position:absolute;overflow:hidden" xmlns="http://www.w3.org/2000/svg"><defs><symbol id="icon-services-1" viewBox="0 0 32 32"><path fill="#a68f4b" style="fill:var(--color1,#a68f4b)" d="M30.827 2.639a4.006 4.006 0 0 1 0 5.666L27.3 11.834l-7.134-7.131 3.529-3.529a4.01 4.01 0 0 1 5.668 0l1.464 1.466zM2.809 22.064 18.75 6.117l7.134 7.13L9.934 29.19a3.56 3.56 0 0 1-1.514.895l-6.506 1.858a1.418 1.418 0 0 1-1.474-.438 1.377 1.377 0 0 1-.382-1.421l1.86-6.507a3.466 3.466 0 0 1 .891-1.514zm12.796-15.63L6.47 15.569 1 10.094a2.996 2.996 0 0 1-.88-2.123A3 3 0 0 1 1 5.848L5.885.962a2.996 2.996 0 0 1 2.123-.88 3 3 0 0 1 2.123.88l1.239 1.236c-.019.018-.044.038-.063.058L7.301 6.261a1.004 1.004 0 0 0-.013 1.426.991.991 0 0 0 .715.292 1.004 1.004 0 0 0 .711-.305l4.006-4.003c.019-.02-.013-.042.057-.063l2.828 2.822zm12.782 12.789a.664.664 0 0 0-.063.056l-4.005 4.004a1.002 1.002 0 0 0 .012 1.401 1.001 1.001 0 0 0 1.401.012l4.005-4.005c.019-.075-.013-.044.057-.063l1.239 1.239a3.003 3.003 0 0 1 0 4.242l-4.887 4.887a3.001 3.001 0 0 1-4.242 0l-5.475-5.468 9.135-9.135 2.822 2.828z"/></symbol><symbol id="icon-services-2" viewBox="0 0 32 32"><path fill="#a68f4b" style="fill:var(--color1,#a68f4b)" d="M0 2a2 2 0 0 1 2-2h8a2 2 0 0 1 2 2v24a5.996 5.996 0 0 1-6 6 5.996 5.996 0 0 1-6-6V2zm8 2H4v4h4V4zM4 16h4v-4H4v4zm2 11.5a1.495 1.495 0 0 0 1.385-.926 1.496 1.496 0 0 0-.326-1.635 1.5 1.5 0 1 0-1.061 2.559zm8-1.5V9.625l4.713-4.71a2.005 2.005 0 0 1 2.832 0l5.656 5.654a2.005 2.005 0 0 1 0 2.831L13.976 26.619c.018-.2.025-.412.025-.619zm9.425-6H30a2 2 0 0 1 2 2v8a2 2 0 0 1-2 2H11.425l12-12z"/></symbol><symbol id="icon-services-3" viewBox="0 0 32 32"><path fill="#a68f4b" style="fill:var(--color1,#a68f4b)" d="M22 6a5.958 5.958 0 0 1-.55 2.513l3.3 5.7a11.943 11.943 0 0 1-5.525 3.35L16 12h-.056l-4.2 7.344c1.377.435 2.812.657 4.256.656a13.85 13.85 0 0 0 10.931-5.306 2.017 2.017 0 0 1 3.119 2.556A18.025 18.025 0 0 1 16 24a17.975 17.975 0 0 1-6.293-1.131l-3.541 6.113c-.294.508-.73.918-1.255 1.181l-3.463 1.731a1.01 1.01 0 0 1-.973-.043A1.004 1.004 0 0 1 0 31v-3.462c.001-.529.14-1.048.404-1.506l3.75-6.475a18.478 18.478 0 0 1-2.204-2.306 2.017 2.017 0 0 1 3.122-2.557c.338.472.719.911 1.139 1.313l4.34-7.494a5.995 5.995 0 0 1 .078-5.182 5.998 5.998 0 0 1 10.782.078c.388.809.589 1.694.59 2.591zm-6 2a1.997 1.997 0 0 0 1.848-1.235 2.006 2.006 0 0 0-.433-2.18 1.997 1.997 0 0 0-2.18-.433A2.004 2.004 0 0 0 14 6a2 2 0 0 0 2 2zm7.257 16.619a19.448 19.448 0 0 0 5.606-3.306l2.732 4.719c.266.457.406.977.406 1.506V31a.992.992 0 0 1-.476.852.99.99 0 0 1-.975.042l-3.462-1.732a3.049 3.049 0 0 1-1.256-1.181l-2.575-4.362z"/></symbol><symbol id="icon-services-4" viewBox="0 0 28 32"><path fill="#a68f4b" style="fill:var(--color1,#a68f4b)" d="M14.118 20c1.96-.003 3.851-.717 5.319-2.006s2.409-3.065 2.648-4.994H6.152c.239 1.929 1.181 3.705 2.648 4.994s3.358 2.002 5.319 2.006zm-8.572-9h17.143c.133-.001.261-.054.356-.147s.148-.22.149-.353v-2a.502.502 0 0 0-.505-.5h-.504c.001-1.376-.408-2.722-1.174-3.869s-1.857-2.045-3.135-2.581L16.134 5V1a.988.988 0 0 0-.295-.708A1.004 1.004 0 0 0 15.125 0h-2.017a1.017 1.017 0 0 0-.714.292.997.997 0 0 0-.295.708v4l-1.74-3.454c-1.278.537-2.368 1.436-3.135 2.583s-1.176 2.494-1.176 3.87h-.504a.502.502 0 0 0-.504.5v1.944a.509.509 0 0 0 .3.508.53.53 0 0 0 .204.048zm14.29 11H8.402c-2.228.001-4.365.879-5.941 2.441S0 28.123 0 30.333c0 .442.177.866.492 1.179S1.235 32 1.68 32h24.875c.446 0 .873-.176 1.189-.488s.492-.737.492-1.179a8.278 8.278 0 0 0-2.459-5.893 8.382 8.382 0 0 0-2.726-1.806A8.456 8.456 0 0 0 19.836 22z"/></symbol><symbol id="icon-services-5" viewBox="0 0 24 32"><path fill="#a68f4b" style="fill:var(--color1,#a68f4b)" d="M15.043 14h6.976a1.884 1.884 0 0 1 1.82 1.294 1.911 1.911 0 0 1-.501 2.213l-16.013 14a2 2 0 0 1-2.497.115 2.003 2.003 0 0 1-.662-2.41l4.81-11.213h-7.03a2.001 2.001 0 0 1-1.262-3.505l16.013-14a2.002 2.002 0 0 1 3.249.973c.12.437.089.903-.091 1.319l-4.812 11.213z"/></symbol><symbol id="icon-services-6" viewBox="0 0 24 32"><path fill="#a68f4b" style="fill:var(--color1,#a68f4b)" d="M20 0H4a4.003 4.003 0 0 0-4 4v24a4.003 4.003 0 0 0 4 4h16a4.003 4.003 0 0 0 4-4V4a4.003 4.003 0 0 0-4-4zm-7 22H5a.997.997 0 0 1-1-1 .997.997 0 0 1 1-1h8a.997.997 0 0 1 1 1 .997.997 0 0 1-1 1zm6-6H5a.997.997 0 0 1-1-1 .997.997 0 0 1 1-1h14a.997.997 0 0 1 1 1 .997.997 0 0 1-1 1zm0-6H5a.997.997 0 0 1-1-1 .997.997 0 0 1 1-1h14a.997.997 0 0 1 1 1 .997.997 0 0 1-1 1z"/></symbol></defs></svg>